<?xml version="1.0" encoding="utf-8" ?><svg xmlns="http://www.w3.org/2000/svg" xmlns:xlink="http://www.w3.org/1999/xlink" width="800" height="800" viewBox="120 83 800 800"><rect x="120" y="83" width="800" height="800" rx="40" ry="40" fill="#FFFFFF"/><path fill="#152F5D" d="M568.334 154.956C578.995 155.107 589.658 155.162 600.32 155.121C604.042 155.125 613.222 155.366 616.358 155.009C618.974 155.414 622.184 156.045 623.661 158.431C627.757 165.05 625.898 178.147 625.997 185.912C635.685 186.429 648.814 183.224 655.448 190.617C657.423 196.284 656.48 234.19 656.774 243.125L690.169 242.999C696.437 242.99 714.786 240.817 715.437 250.044C716.491 264.988 715.685 280.418 715.809 295.434C715.88 304.195 713.653 307.036 704.932 307.807C703.042 307.848 701.541 307.888 699.663 308.075L699.121 308.694L699.58 309.815C703.511 312.757 716.61 324.365 720.257 328.046C724.386 327.959 729.486 327.953 733.493 328.965C738.822 330.767 740.406 333.832 741.425 339.152C742.732 346.311 740.894 358.366 743.653 362.662C746.538 366.927 748.17 371.459 750.066 376.24C757.798 376.451 768.615 374.217 772.848 381.533C775.431 385.919 774.53 407.302 774.523 413.37L774.487 465.075L779.334 465.131C801.087 464.928 800.932 465.623 800.919 487.446L800.875 552.349C800.882 563.323 801.216 575.998 800.883 586.852C800.897 592.727 800.956 598.675 800.898 604.543C807.835 610.509 818.393 617.299 818.328 626.104C818.265 634.619 818.205 643.538 817.865 652.053C817.731 652.734 817.422 654.349 816.962 654.848C810.922 661.404 797.5 675.129 790.848 680.018C784.396 680.741 765.7 680.444 758.876 679.912C755.148 677.155 755.367 676.99 752.265 673.681C749.076 674.324 745.767 674.137 742.502 674.106C742.516 680.469 742.922 695.446 742.254 701.13C741.248 705.38 738.735 707.571 734.496 708.569C729.168 709.388 712.77 708.988 706.977 708.965C707.03 713.94 707.736 725.416 705.895 729.284C701.731 733.253 693.433 732.01 687.894 732.115C681.472 732.237 674.877 732.054 668.435 732.049L668.537 747.068C697.359 746.806 706.567 741 704.061 773.994C703.442 782.146 704.182 793.374 703.931 801.934L703.915 802.353C703.353 805.909 702.729 807.521 699.655 809.737C699.1 810.131 698.535 810.51 697.959 810.873C695.432 811.087 692.293 811.456 689.807 811.391L551.397 811.347C533.513 811.506 536.992 799.299 537.045 785.471L537.043 758.826C527.736 758.326 516.31 758.621 506.873 758.619L454.212 758.54L454.318 786.065C454.353 796.165 457.132 809.408 444.458 811.381C427.488 811.669 409.685 811.405 392.619 811.407L301.741 811.381C300.45 811.343 298.526 811.154 297.288 810.81C294.851 810.134 292.969 808.843 291.692 806.658C290.977 805.437 290.393 803.083 290.447 801.784C290.833 792.591 289.437 760.879 291.223 753.961C293.693 743.864 316.845 746.956 325.82 747.029C325.425 741.99 325.57 737.038 325.633 731.99C315.195 732.046 304.418 732.238 294.009 731.953C285.822 730.563 288.452 721.49 288.116 715.369C288.004 713.328 288.144 710.998 288.155 708.939C280.548 708.831 272.898 709.148 265.3 709.027C261.672 708.969 257.691 708.161 255.227 705.286C251.643 701.103 252.43 695.525 252.63 690.411C252.352 680.98 252.572 670.52 252.568 661.009C245.701 661.071 238.833 661.064 231.966 660.986C225.815 659.834 224.066 657.431 222.683 651.455C222.095 644.567 222.51 630.143 222.497 622.489L222.156 573.503L222.178 511.183C222.204 499.55 222.1 487.719 222.555 476.103C222.678 472.956 223.073 471.725 224.414 468.856C231.2 463.102 242.765 464.948 251.875 465.148C251.477 462.387 251.545 459.383 251.554 456.587C251.635 433.204 251.364 409.799 251.755 386.422C251.791 384.276 252.061 382.303 252.989 380.352C257.574 372.286 283.463 375.046 292.303 375.106C292.394 362.77 291.758 347.156 292.98 334.858C293.294 331.691 296.618 329.609 299.18 328.096C308.028 327.717 319.027 328.003 328.045 327.983C328.132 321.365 328.066 314.627 328.062 307.998C323.138 307.99 314.947 308.805 311.399 305.655C308.902 303.44 308.114 301.375 308.073 298.124C307.966 289.647 307.893 281.219 307.969 272.73C308.173 265.362 307.54 257.759 308.525 250.455C309.032 246.695 312.406 243.896 316.041 243.441C322.579 242.622 329.416 242.96 336.019 242.987L367.017 243.027C366.987 241.713 366.965 240.398 366.949 239.083L366.891 209.303C366.878 198.312 364.002 185.566 378.628 185.979C384.649 186.148 390.987 186.013 397.03 186.039C396.922 178.714 396.221 168.179 397.601 161.066C398.079 158.603 399.754 157.255 401.836 156.077C403.101 155.621 404.328 155.31 405.672 155.187C412.736 154.544 471.253 154.556 474.719 155.993C476.857 156.879 478.316 158.358 479.114 160.531C479.567 161.763 479.635 163.014 479.684 164.314C479.847 167.683 479.797 171.641 479.838 175.059L544.018 175.016C543.996 171.542 543.762 164.593 544.436 161.516C544.848 152.593 561.78 155.184 568.334 154.956ZM502 328.412C492.418 329.205 477.356 330.829 468.034 333.259C468.067 341.817 468.055 350.374 467.999 358.932L446.641 359.009L446.547 378.019C442.054 377.979 435.41 377.39 431.595 379.36C428.987 382.802 430.465 403.787 430.089 410.008L418.036 410.096L418.034 493.112L430.039 493.058C430.27 503.337 430.37 513.619 430.341 523.9L446.061 523.955C446.058 531.013 445.931 538.513 446.112 545.535L469.241 545.459L469.628 568.469C479.924 568.443 490.757 568.535 501.004 568.065L501.126 587.85C504.631 587.863 520.576 587.3 522.629 589.178C522.816 590.251 522.792 591.684 524.034 592.174C528.851 594.077 534.816 593.993 539.964 594.574C566.007 597.513 592.076 597.999 618.171 595.369C624.697 594.712 631.391 594.15 637.967 593.569L637.975 585.621C647.447 584.762 664.343 583.613 673.036 581.842L672.855 566.996C681.876 567.034 690.139 566.025 698.914 565.873L698.933 545.054L722.009 544.985C722.11 538.911 722.714 526.474 722.118 520.978C728.062 520.642 734.012 520.415 739.964 520.296C740.659 507.676 742.385 499.83 744.098 487.495C745.45 477.378 746.362 467.206 746.831 457.01C747.534 440.625 746.02 424.049 743.044 407.978C742.082 402.783 741.45 397.327 740.834 392.076C736.87 392.239 731.753 392.556 727.841 392.446L727.894 369.86C722.108 369.737 716.32 369.732 710.533 369.846L710.563 345.2C706.116 344.985 701.256 344.241 696.805 343.661L696.921 333.214C689.789 332.363 684.056 331.969 676.925 331.621C676.82 328.513 676.946 324.863 676.982 321.71C670.972 320.666 664.153 319.248 658.139 318.918L658.082 307.179C628.472 297.616 593.814 295.301 562.945 297.08C537.931 299.962 525.336 303.048 502.028 312.449L502 328.412ZM370.885 411.055C373.876 410.104 400.284 410.468 405.42 410.477L405.591 388.14C405.599 383.073 406.04 379.353 402.492 375.782L401.56 375.892C399.057 376.163 392.884 375.976 390.155 375.959L367.531 375.817C363.963 375.799 351.868 375.249 350.818 378.709C348.824 385.276 352.076 398.705 349.482 405.169C344.602 406.196 331.267 405.652 325.997 405.513C317.076 406.178 317.934 408.699 317.872 416.651C317.997 429.25 316.588 498.097 319.074 504.71C323.627 507.865 339.808 506.288 346.559 506.642L349.555 506.794C350.774 509.774 350.678 523.349 350.208 526.414C351.233 535.114 358.921 532.314 365.804 532.455C372.932 532.49 380.066 532.348 387.193 532.463C391.116 532.526 395.362 533.024 399.255 532.623C400.782 532.466 402.399 532.056 403.536 530.955C407.041 527.562 405.544 505.873 405.516 500.048C396.607 499.902 381.336 500.759 372.182 499.438C371.195 499.355 370.632 497.018 370.572 496.394C368.847 478.496 370.217 459.938 369.811 441.918C369.708 437.375 369.385 413.325 370.885 411.055ZM662.422 758.625L569.035 758.607L569.031 792.556L631.401 792.519C638.574 792.516 656.233 792.066 662.296 792.807L662.163 788.34C662.235 778.678 662.033 768.173 662.422 758.625ZM421.876 792.735C423.152 790.604 422.354 763.659 422.797 758.399C416.689 759.082 408.261 758.694 402.012 758.628C378.357 758.378 354.601 758.901 330.963 758.559C330.895 769.941 330.889 781.323 330.945 792.704C349.131 792.227 368.416 792.581 386.69 792.525C396.316 792.496 412.867 792.037 421.876 792.735Z"/><path fill="#050E2B" d="M568.334 154.956C578.995 155.107 589.658 155.162 600.32 155.121C604.042 155.125 613.222 155.366 616.358 155.009C618.974 155.414 622.184 156.045 623.661 158.431C627.757 165.05 625.898 178.147 625.997 185.912C635.685 186.429 648.814 183.224 655.448 190.617C657.423 196.284 656.48 234.19 656.774 243.125L690.169 242.999C696.437 242.99 714.786 240.817 715.437 250.044C716.491 264.988 715.685 280.418 715.809 295.434C715.88 304.195 713.653 307.036 704.932 307.807C705.15 306.879 705.028 307.238 705.753 306.455C709.657 305.505 713.64 304.038 713.907 299.358C714.579 287.568 713.987 275.635 714.291 263.827C714.425 258.632 715.172 251.523 712.1 247.179C711.043 245.685 707.539 245.134 705.864 244.925C689.414 244.268 672.107 245.2 655.728 244.507C654.172 230.378 657.107 206.504 654.484 192.428C652.913 183.995 632.812 190.403 625.444 186.844C622.05 182.182 628.43 157.828 619.194 157.188C596.898 155.643 574.271 156.491 551.932 156.515C547.848 156.519 547.246 159.879 544.436 161.516C544.848 152.593 561.78 155.184 568.334 154.956Z"/><path fill="#050E2B" d="M444.458 811.381L442.435 810.884L442.44 810.428C446.311 809.574 448.078 809.868 450.414 806.984C456.08 799.988 449.485 762.139 454.433 757.898C458.248 756.988 482.295 757.072 488.335 757.223C503.876 757.61 523.178 756.519 538.232 757.625C539.011 772.883 537.878 788.249 538.886 803.464C539.275 809.32 551.12 810.104 551.397 811.347C533.513 811.506 536.992 799.299 537.045 785.471L537.043 758.826C527.736 758.326 516.31 758.621 506.873 758.619L454.212 758.54L454.318 786.065C454.353 796.165 457.132 809.408 444.458 811.381Z"/><path fill="#050E2B" d="M779.334 465.131C801.087 464.928 800.932 465.623 800.919 487.446L800.875 552.349C800.882 563.323 801.216 575.998 800.883 586.852L800.175 586.5L799.815 587.909C798.893 575.401 800.865 474.717 798.176 470.501C794.697 465.048 783.851 467.866 778.546 466.203L778.402 465.621L779.334 465.131Z"/><path fill="#050E2B" d="M252.63 690.411L252.673 689.983C253.213 684.113 252.252 665.701 253.352 661.685C255.393 670.857 250.761 700.846 258.218 705.702C262.059 708.203 282.956 707.871 289.324 707.598C289.377 714.41 289.806 720.73 289.755 727.762C291.1 728.969 293.002 730.522 294.009 731.953C285.822 730.563 288.452 721.49 288.116 715.369C288.004 713.328 288.144 710.998 288.155 708.939C280.548 708.831 272.898 709.148 265.3 709.027C261.672 708.969 257.691 708.161 255.227 705.286C251.643 701.103 252.43 695.525 252.63 690.411Z"/><path fill="#050E2B" d="M401.836 156.077C403.101 155.621 404.328 155.31 405.672 155.187C412.736 154.544 471.253 154.556 474.719 155.993C476.857 156.879 478.316 158.358 479.114 160.531C479.567 161.763 479.635 163.014 479.684 164.314C479.61 167.909 479.573 170.771 479.126 174.329C478.256 168.851 478.881 163.428 476.294 158.732C470.719 154.106 413.601 158.606 401.836 156.077Z"/><path fill="#050E2B" d="M817.865 652.053C817.731 652.734 817.422 654.349 816.962 654.848C810.922 661.404 797.5 675.129 790.848 680.018C784.396 680.741 765.7 680.444 758.876 679.912C755.148 677.155 755.367 676.99 752.265 673.681L752.689 673.262C753.832 673.437 757.603 677.102 759.379 678.344L759.857 678.672C766.938 679.358 782.882 679.145 789.943 678.726C796.558 674.443 805.944 663.458 812.032 657.861C814.238 655.834 815.211 654.117 817.865 652.053Z"/><path fill="#050E2B" d="M291.223 753.961C293.953 758.817 289.507 799.408 293.446 806.529C295.273 809.832 299.651 808.652 301.741 811.381C300.45 811.343 298.526 811.154 297.288 810.81C294.851 810.134 292.969 808.843 291.692 806.658C290.977 805.437 290.393 803.083 290.447 801.784C290.833 792.591 289.437 760.879 291.223 753.961Z"/><path fill="#050E2B" d="M743.653 362.662C746.538 366.927 748.17 371.459 750.066 376.24C757.798 376.451 768.615 374.217 772.848 381.533C770.911 381.387 768.673 378.427 765.374 378.11C760.851 377.853 756.061 378.268 751.58 377.712C748.278 377.302 742.995 365.117 743.653 362.662Z"/><path fill="#050E2B" d="M222.683 651.455C223.229 641.095 221.994 624.909 223.135 615.45C223.948 618.774 224.095 648.152 223.526 651.567C224.581 653.69 225.386 655.408 226.691 657.407C228.455 658.263 230.229 659.1 232.011 659.916C232.055 660.851 232.16 660.509 231.966 660.986C225.815 659.834 224.066 657.431 222.683 651.455Z"/><path fill="#050E2B" d="M699.58 309.815C703.511 312.757 716.61 324.365 720.257 328.046C718.899 328.695 718.149 327.905 717.124 327.027C713.679 324.076 700.043 313.388 699.58 309.815Z"/><path fill="#050E2B" d="M734.496 708.569L734.427 707.634C737.468 705.383 740.606 704.31 740.92 699.892C741.233 695.489 741.079 691.276 741.687 686.869L741.8 686.072C742.181 691.033 741.991 696.107 742.254 701.13C741.248 705.38 738.735 707.571 734.496 708.569Z"/><path fill="#050E2B" d="M698.537 808.971C701.8 805.907 701.627 803.954 703.915 802.353C703.353 805.909 702.729 807.521 699.655 809.737C699.1 810.131 698.535 810.51 697.959 810.873C695.432 811.087 692.293 811.456 689.807 811.391C691.876 809.856 695.696 809.545 698.537 808.971Z"/><path fill="#050E2B" d="M733.493 328.965C738.822 330.767 740.406 333.832 741.425 339.152C739.087 335.616 737.514 332.847 734.052 330.308L733.341 329.79L733.493 328.965Z"/><path fill="#FE4142" d="M562.945 297.08C593.814 295.301 628.472 297.616 658.082 307.179L658.139 318.918C664.153 319.248 670.972 320.666 676.982 321.71C676.946 324.863 676.82 328.513 676.925 331.621C684.056 331.969 689.789 332.363 696.921 333.214L696.805 343.661C701.256 344.241 706.116 344.985 710.563 345.2L710.533 369.846C716.32 369.732 722.108 369.737 727.894 369.86L727.841 392.446C731.753 392.556 736.87 392.239 740.834 392.076C741.45 397.327 742.082 402.783 743.044 407.978C746.02 424.049 747.534 440.625 746.831 457.01C746.362 467.206 745.45 477.378 744.098 487.495C742.385 499.83 740.659 507.676 739.964 520.296C734.012 520.415 728.062 520.642 722.118 520.978C722.714 526.474 722.11 538.911 722.009 544.985L698.933 545.054L698.914 565.873C690.139 566.025 681.876 567.034 672.855 566.996L673.036 581.842C664.343 583.613 647.447 584.762 637.975 585.621L637.967 593.569C631.391 594.15 624.697 594.712 618.171 595.369C592.076 597.999 566.007 597.513 539.964 594.574C534.816 593.993 528.851 594.077 524.034 592.174C522.792 591.684 522.816 590.251 522.629 589.178C520.576 587.3 504.631 587.863 501.126 587.85L501.004 568.065C490.757 568.535 479.924 568.443 469.628 568.469L469.241 545.459L446.112 545.535C445.931 538.513 446.058 531.013 446.061 523.955L430.341 523.9C430.37 513.619 430.27 503.337 430.039 493.058L418.034 493.112L418.036 410.096L430.089 410.008C430.465 403.787 428.987 382.802 431.595 379.36C435.41 377.39 442.054 377.979 446.547 378.019L446.641 359.009L467.999 358.932C468.055 350.374 468.067 341.817 468.034 333.259C477.356 330.829 492.418 329.205 502 328.412L502.028 312.449C525.336 303.048 537.931 299.962 562.945 297.08ZM534.786 331.602C534.678 336.227 534.659 340.853 534.73 345.478C527.558 345.794 519.995 345.985 512.928 347.13L512.982 358.824C505.983 358.592 498.981 358.519 491.98 358.605L491.955 376.956L473.907 377.008C473.894 383.302 473.949 389.734 473.844 396.015L458.018 396.083L458.489 425.881L445.936 425.966L446.025 461.706C446.043 467.697 445.845 475.788 446.223 481.57C450.405 481.561 454.79 481.623 458.953 481.504L459.003 508.992C464.125 508.923 469.686 508.957 474.762 508.616C474.932 516.416 475.004 524.219 474.978 532.022C481.146 532.035 487.452 531.977 493.607 532.071C493.601 536.76 493.702 541.448 493.911 546.132L514.458 546.093L514.58 559.856C521.259 559.46 530.089 559.944 536.95 560.149C536.742 564.157 536.782 567.236 536.906 571.261C552.1 573.772 575.387 574.609 590.9 574.449C601.994 574.002 617.513 572.919 628.015 572.916L628.02 560.805C634.52 560.618 642.708 560.625 649.054 560.111L649.085 546.229L671.467 546.011C671.477 541.183 671.531 536.292 671.483 531.47C677.662 531.257 683.844 531.119 690.026 531.054L690.012 508.979L706.044 509.005L706.065 484.063L718.996 484.005C719.348 464.11 720.123 443.843 719.152 423.938L708.07 424.025L707.98 396.113C701.688 396.101 695.309 396.032 689.025 396.089L689.008 376.932L671.025 376.929L671.01 358.568C665.587 358.501 657.087 358.054 652.022 358.443L651.969 347.058C643.99 346.502 636.024 345.785 628.073 344.91L628.028 331.893C611.249 329.599 589.232 328.123 572.449 328.766C559.847 328.906 547.267 329.854 534.786 331.602Z"/><path fill="#FE978F" d="M562.945 297.08C593.814 295.301 628.472 297.616 658.082 307.179L658.139 318.918C664.153 319.248 670.972 320.666 676.982 321.71C676.946 324.863 676.82 328.513 676.925 331.621C684.056 331.969 689.789 332.363 696.921 333.214L696.805 343.661C701.256 344.241 706.116 344.985 710.563 345.2L710.533 369.846C716.32 369.732 722.108 369.737 727.894 369.86L727.841 392.446C718.08 392.477 708.32 392.421 698.561 392.277L698.485 371.134C692.177 370.936 685.469 371.002 679.129 370.965C678.861 365.692 679.07 359.29 679.106 353.936L659.753 354.071C659.529 349.714 659.63 344.745 659.619 340.339C652.596 340.389 644.74 340.004 637.662 339.806C637.375 334.035 637.517 327.069 637.509 321.2C606.158 315.091 594.274 314.668 563.067 314.994L562.945 297.08Z"/><path fill="#152F5D" d="M572.449 328.766C589.232 328.123 611.249 329.599 628.028 331.893L628.073 344.91C636.024 345.785 643.99 346.502 651.969 347.058L652.022 358.443C657.087 358.054 665.587 358.501 671.01 358.568L671.025 376.929L689.008 376.932L689.025 396.089C695.309 396.032 701.688 396.101 707.98 396.113L708.07 424.025L719.152 423.938C720.123 443.843 719.348 464.11 718.996 484.005L706.065 484.063L706.044 509.005L690.012 508.979L690.026 531.054C683.844 531.119 677.662 531.257 671.483 531.47C671.531 536.292 671.477 541.183 671.467 546.011L649.085 546.229L649.054 560.111C642.708 560.625 634.52 560.618 628.02 560.805L628.015 572.916C617.513 572.919 601.994 574.002 590.9 574.449C575.387 574.609 552.1 573.772 536.906 571.261C536.782 567.236 536.742 564.157 536.95 560.149C530.089 559.944 521.259 559.46 514.58 559.856L514.458 546.093L493.911 546.132C493.702 541.448 493.601 536.76 493.607 532.071C487.452 531.977 481.146 532.035 474.978 532.022C475.004 524.219 474.932 516.416 474.762 508.616C469.686 508.957 464.125 508.923 459.003 508.992L458.953 481.504C454.79 481.623 450.405 481.561 446.223 481.57C445.845 475.788 446.043 467.697 446.025 461.706L445.936 425.966L458.489 425.881L458.018 396.083L473.844 396.015C473.949 389.734 473.894 383.302 473.907 377.008L491.955 376.956L491.98 358.605C498.981 358.519 505.983 358.592 512.982 358.824L512.928 347.13C519.995 345.985 527.558 345.794 534.73 345.478C534.659 340.853 534.678 336.227 534.786 331.602C547.267 329.854 559.847 328.906 572.449 328.766ZM536.391 368.835L514.031 368.907C514.071 373.389 514.045 378.048 514.191 382.512L492.083 382.487C492.107 385.731 492.356 392.992 492.035 395.919C492.146 398.285 492.545 398.966 491.592 400.924C488.345 402.861 484.048 401.565 479.893 401.191L478.577 401.675C477.485 404.341 478.023 421.804 478.076 426.032L468.986 425.935C468.993 443.822 469.492 464.085 468.958 481.765C472.675 481.395 475.95 481.47 479.686 481.496C480.32 486.899 479.934 499.811 480.017 506.063L494.621 505.98L494.53 524.365C501.363 524.441 508.197 524.461 515.03 524.422L514.986 539.05L538.562 539.026L538.443 550.615L625.963 550.681L626 539.002C633.182 539.064 640.364 539.168 647.545 539.314L647.467 524.425L669.994 524.485L669.962 506.515L687.49 506.642L687.506 481.413L696.558 481.482L696.66 424.838L687.414 424.987C687.364 417.125 687.409 409.263 687.55 401.402C683.951 399.692 673.986 399.704 670.39 401.362C669.434 399.857 669.9 385.31 669.925 382.595C667.038 382.594 663.858 382.803 660.946 382.935L650.243 382.988L638.511 383.05C638.512 378.694 638.334 372.997 638.96 368.799C634.884 368.89 631.383 368.59 627.096 368.853C626.812 363.633 626.723 359.423 626.739 354.202C597.635 351.279 565.544 349.247 536.511 354.213L536.391 368.835Z"/><path fill="#50ECFC" d="M536.511 354.213C565.544 349.247 597.635 351.279 626.739 354.202C626.723 359.423 626.812 363.633 627.096 368.853C625.016 370.587 609.726 370.057 606.049 370.051L605.951 403.039C611.816 403.091 621.463 402.878 626.979 403.435L627.045 427.057L662.018 427.024C661.815 412.325 661.457 397.627 660.946 382.935C663.858 382.803 667.038 382.594 669.925 382.595C669.9 385.31 669.434 399.857 670.39 401.362C673.986 399.704 683.951 399.692 687.55 401.402C687.409 409.263 687.364 417.125 687.414 424.987L696.66 424.838L696.558 481.482L687.506 481.413L687.49 506.642L669.962 506.515L669.994 524.485L647.467 524.425L647.545 539.314C640.364 539.168 633.182 539.064 626 539.002L625.963 550.681L538.443 550.615L538.562 539.026L514.986 539.05L515.03 524.422C508.197 524.461 501.363 524.441 494.53 524.365L494.621 505.98L480.017 506.063C479.934 499.811 480.32 486.899 479.686 481.496C475.95 481.47 472.675 481.395 468.958 481.765C469.492 464.085 468.993 443.822 468.986 425.935L478.076 426.032C478.023 421.804 477.485 404.341 478.577 401.675L479.893 401.191C484.048 401.565 488.345 402.861 491.592 400.924C492.545 398.966 492.146 398.285 492.035 395.919C492.356 392.992 492.107 385.731 492.083 382.487L514.191 382.512C514.045 378.048 514.071 373.389 514.031 368.907L536.391 368.835L536.511 354.213ZM546.995 541.06L583.354 541.125C583.364 535.491 583.441 529.744 583.244 524.122C572.206 524.167 557.856 524.62 547.016 524.062L546.995 541.06ZM523.01 529.978C527.924 529.542 533.726 529.518 538.695 529.759C539.284 526.671 539.03 520.005 539.033 516.483C533.67 516.531 528.326 516.623 522.965 516.442L523.01 529.978Z"/><path fill="#050E2B" d="M670.39 401.362C673.986 399.704 683.951 399.692 687.55 401.402C683.42 401.723 674.552 401.565 670.39 401.362Z"/><path fill="#152F5D" d="M518.123 399.348C521.895 401.112 566.26 443.975 573.305 450.417C566.607 456.161 557.82 465.029 551.322 471.251C540.742 481.23 530.28 491.333 519.938 501.558C518.681 501.332 502.519 486.092 500.255 484.028C511.798 472.591 524.363 461.169 535.555 449.73C525.821 440.215 510.266 426.021 499.93 417.312L518.123 399.348Z"/><path fill="#152F5D" d="M571.5 477.05L659.891 477.056C659.612 485.431 659.829 494.653 659.868 503.093C630.761 502.659 600.707 503.034 571.524 503.025L571.5 477.05Z"/><path fill="#050E2B" d="M573.729 477.774C595.517 476.796 618.14 478.107 640.011 477.602C645.884 477.466 652.411 477.421 658.253 477.674L658.583 478.231C653.684 479.337 578.159 479.076 573.729 477.774Z"/><path fill="#50ECFC" d="M638.96 368.799C642.423 368.482 646.73 368.709 650.274 368.8C650.211 373.252 649.997 378.609 650.243 382.988L638.511 383.05C638.512 378.694 638.334 372.997 638.96 368.799Z"/><path fill="#050E2B" d="M468.958 481.765C472.675 481.395 475.95 481.47 479.686 481.496C479.118 485.962 479.543 490.59 479.316 495.145L479.253 495.122C478.597 492.511 478.859 486.088 478.756 482.866C476.238 482.831 470.238 483.766 468.958 481.765Z"/><path fill="#D69F5D" d="M548.925 201.541C549.019 197.782 548.471 191.283 551.406 188.39C553.154 186.669 598.71 187.328 604.66 187.549C607.84 187.667 610.56 187.482 612.855 190.028C613.54 190.788 614.063 191.634 614.291 192.64C615.837 199.461 614.655 221.475 614.525 229.709L439.525 229.62L408.374 229.62C408.504 222.168 408.528 214.714 408.447 207.262C408.125 189.829 406.936 187.011 426.711 187.753C430.714 187.903 435.532 187.851 439.606 187.9C447.445 187.822 455.363 187.751 463.197 187.75C474.35 187.749 473.014 192.617 472.93 201.687C498.108 201.534 523.864 201.966 548.925 201.541Z"/><path fill="#AA6F50" d="M408.374 229.62C408.504 222.168 408.528 214.714 408.447 207.262C408.125 189.829 406.936 187.011 426.711 187.753C430.714 187.903 435.532 187.851 439.606 187.9C439.969 196.758 439.844 205.963 439.9 214.845C439.919 217.892 440.008 227.057 439.525 229.62L408.374 229.62Z"/><path fill="#D69F5D" d="M371.928 262.812L578.854 262.774L646.715 262.779C658.828 262.779 672.399 262.513 684.439 262.926C684.462 272.087 684.677 282.123 684.198 291.203C676.876 291.191 669.295 291.277 661.995 291.105L662.012 283.192C626.984 270.883 573.462 270.753 536.802 275.204C525.891 276.528 513.323 279.732 502.605 282.392C502.594 285.334 502.611 288.297 502.479 291.235L371.858 291.215C372.093 281.943 371.932 272.125 371.928 262.812Z"/><path fill="#FE978F" d="M706.734 581.419C713.635 575.729 720.9 569.512 727.902 564.025C733.816 569.257 740.171 575.007 746.28 579.988C739.52 585.99 731.082 593.54 724.689 599.98L707.038 616.327C701.436 611.37 692.861 602.36 687.63 596.931C693.717 592.493 700.801 586.314 706.734 581.419Z"/><path fill="#FE4142" d="M687.63 596.931C693.717 592.493 700.801 586.314 706.734 581.419C712.691 587.872 718.837 593.728 724.689 599.98L707.038 616.327C701.436 611.37 692.861 602.36 687.63 596.931Z"/><path fill="#568EC3" d="M753.77 588.842C755.886 590.119 765.356 598.622 767.692 600.648C777.065 608.867 786.554 616.953 796.154 624.905C792.187 628.167 786.737 631.845 782.483 634.889L777.722 638.364C766.285 625.88 753.694 613.005 741.799 600.919C745.363 597.062 750.009 592.625 753.77 588.842Z"/><path fill="#AA6F50" d="M340.462 262.839C350.832 262.698 361.535 262.813 371.928 262.812C371.932 272.125 372.093 281.943 371.858 291.215L340.398 291.227C340.611 281.948 340.459 272.156 340.462 262.839Z"/><path fill="#050E2B" d="M662.296 792.807C660.948 793.426 659.198 793.697 657.325 793.698C628.361 793.709 599.207 793.996 570.286 793.539C569.35 793.524 567.999 792.093 567.939 791.42C567.424 785.664 566.684 762.13 568.743 758.071C571.016 757.024 657.089 756.743 662.868 757.783C664.828 760.415 663.966 785.026 662.163 788.34C662.235 778.678 662.033 768.173 662.422 758.625L569.035 758.607L569.031 792.556L631.401 792.519C638.574 792.516 656.233 792.066 662.296 792.807Z"/><path fill="#050E2B" d="M329.833 757.62C345.999 756.503 367.618 757.658 384.396 757.335C392.299 757.184 415.507 756.897 422.487 757.681L422.797 758.399C416.689 759.082 408.261 758.694 402.012 758.628C378.357 758.378 354.601 758.901 330.963 758.559C330.895 769.941 330.889 781.323 330.945 792.704C349.131 792.227 368.416 792.581 386.69 792.525C396.316 792.496 412.867 792.037 421.876 792.735L421.507 793.403C418.025 793.967 414.463 793.986 410.942 793.985C386.098 793.975 361.242 794.169 336.401 793.962C334.372 793.945 331.845 793.486 329.944 792.859C328.661 789.923 329.608 762.647 329.833 757.62Z"/><path fill="#050E2B" d="M349.482 405.169L348.803 404.643C348.759 404.2 348.728 403.965 348.724 403.481C348.702 400.221 348.992 396.941 349.012 393.675C349.037 389.654 347.561 378.99 351.113 376.198C354.971 373.167 392.204 374.273 398.76 374.629C400.089 374.701 401.56 374.755 402.492 375.782L401.56 375.892C399.057 376.163 392.884 375.976 390.155 375.959L367.531 375.817C363.963 375.799 351.868 375.249 350.818 378.709C348.824 385.276 352.076 398.705 349.482 405.169Z"/><path fill="#050E2B" d="M370.885 411.055C375.567 410.986 401.114 410.198 402.854 411.654C398.204 411.975 373.774 412.917 370.885 411.055Z"/><path fill="#050E2B" d="M351.919 533.432C349.842 531.176 348.19 529.244 350.208 526.414C351.233 535.114 358.921 532.314 365.804 532.455C366.939 532.73 366.857 532.732 367.93 533.203C366.105 534.744 354.722 533.811 351.919 533.432Z"/><path fill="#050E2B" d="M346.559 506.642L349.555 506.794C344.932 508.538 330.972 508.63 326.295 507.369C333.046 506.599 339.464 507.261 346.033 506.692L346.559 506.642Z"/><path fill="#050E2B" d="M317.872 416.651L316.95 416.273C314.63 409.842 318.26 401.864 325.997 405.513C317.076 406.178 317.934 408.699 317.872 416.651Z"/></svg>
